<svg id="Layer_1" data-name="Layer 1" xmlns="http://www.w3.org/2000/svg" xmlns:xlink="http://www.w3.org/1999/xlink" viewBox="0 0 30.91 21.57"><defs><style>.cls-1{fill:url(#linear-gradient);}.cls-2{fill:url(#linear-gradient-2);}.cls-3,.cls-4,.cls-5{fill-rule:evenodd;}.cls-3{fill:url(#linear-gradient-3);}.cls-4{fill:url(#linear-gradient-4);}.cls-5{fill:url(#linear-gradient-5);}</style><linearGradient id="linear-gradient" x1="30.61" y1="17.1" x2="30.92" y2="17.09" gradientTransform="matrix(1, 0, 0, -1, 0, 17.25)" gradientUnits="userSpaceOnUse"><stop offset="0" stop-color="#26a4ff"/><stop offset="1" stop-color="#0d9aff"/></linearGradient><linearGradient id="linear-gradient-2" x1="5.64" y1="4.88" x2="5.95" y2="4.87" xlink:href="#linear-gradient"/><linearGradient id="linear-gradient-3" y1="12.38" x2="26.88" y2="12.38" gradientUnits="userSpaceOnUse"><stop offset="0" stop-color="#d8e9a8"/><stop offset="1" stop-color="#1e5128"/></linearGradient><linearGradient id="linear-gradient-4" x1="5.32" y1="13.22" x2="21.72" y2="13.22" xlink:href="#linear-gradient-3"/><linearGradient id="linear-gradient-5" x1="2.73" y1="9.34" x2="29.77" y2="9.34" xlink:href="#linear-gradient-3"/></defs><circle class="cls-1" cx="30.76" cy="0.16" r="0.16"/><circle class="cls-2" cx="5.78" cy="12.38" r="0.16"/><path class="cls-3" d="M4.86,5.93H22a1.52,1.52,0,0,1,1.52,1.52v9.87A1.52,1.52,0,0,1,22,18.84H5a1.52,1.52,0,0,1-1.52-1.52V7.45A1.4,1.4,0,0,1,4.86,5.93M.46,3.19h26a.4.4,0,0,1,.45.46V21a.65.65,0,0,1-.61.61H.61A.65.65,0,0,1,0,21V3.65A.41.41,0,0,1,.46,3.19Z"/><path class="cls-4" d="M21.72,17.62l-2.28-4a1.15,1.15,0,0,0-1.82,0l-2.28,4ZM18.53,8.81a1.37,1.37,0,1,1-1.37,1.37A1.36,1.36,0,0,1,18.53,8.81ZM5.32,17.62l3.49-6.07a1.86,1.86,0,0,1,2.88,0l3.65,6.07Z"/><path class="cls-5" d="M3.34.16h26a.4.4,0,0,1,.46.45V17.93a.65.65,0,0,1-.61.6H27.49V3A.4.4,0,0,0,27,2.59H2.73v-2C2.89.46,3,.16,3.34.16"/></svg>