<svg id="Layer_1" data-name="Layer 1" xmlns="http://www.w3.org/2000/svg" xmlns:xlink="http://www.w3.org/1999/xlink" viewBox="0 0 155.83 35.5"><defs><style>.cls-1{fill:url(#linear-gradient);}.cls-2{fill:url(#linear-gradient-2);}.cls-3{fill:url(#linear-gradient-3);}.cls-4{font-size:31px;font-family:ClearSans-Bold, Clear Sans;font-weight:700;}.cls-5{fill:url(#linear-gradient-4);}.cls-6,.cls-7,.cls-8{fill-rule:evenodd;}.cls-6{fill:url(#linear-gradient-11);}.cls-7{fill:url(#linear-gradient-12);}.cls-8{fill:url(#linear-gradient-13);}</style><linearGradient id="linear-gradient" x1="28.11" y1="27.61" x2="28.42" y2="27.6" gradientTransform="matrix(1, 0, 0, -1, 0, 31.04)" gradientUnits="userSpaceOnUse"><stop offset="0" stop-color="#26a4ff"/><stop offset="1" stop-color="#0d9aff"/></linearGradient><linearGradient id="linear-gradient-2" x1="3.14" y1="14.9" x2="3.45" y2="14.89" xlink:href="#linear-gradient"/><linearGradient id="linear-gradient-3" x1="9.05" y1="28.13" x2="9.54" y2="28.12" xlink:href="#linear-gradient"/><linearGradient id="linear-gradient-4" x1="31.97" y1="15.5" x2="154.53" y2="15.5" gradientUnits="userSpaceOnUse"><stop offset="0" stop-color="#d8e9a8"/><stop offset="1" stop-color="#1e5128"/></linearGradient><linearGradient id="linear-gradient-11" x1="0" y1="16.67" x2="26.88" y2="16.67" xlink:href="#linear-gradient-4"/><linearGradient id="linear-gradient-12" x1="5.32" y1="17.51" x2="21.72" y2="17.51" xlink:href="#linear-gradient-4"/><linearGradient id="linear-gradient-13" x1="2.73" y1="13.63" x2="29.77" y2="13.63" xlink:href="#linear-gradient-4"/></defs><path class="cls-1" d="M28.26,3.59a.16.16,0,0,0,0-.32.16.16,0,1,0,0,.32Z"/><path class="cls-2" d="M3.28,16.3a.16.16,0,1,0,0-.32.16.16,0,0,0,0,.32Z"/><path class="cls-3" d="M9.28,3.16a.25.25,0,0,0,.25-.25.25.25,0,1,0-.49,0A.25.25,0,0,0,9.28,3.16Z"/><text class="cls-4" transform="translate(29.7 25.97)">MASK.IO</text><path class="cls-5" d="M48.54,26V11.9l-5,8.75H41.05l-5-8.75V26H32V5h4.92L42.35,15,47.86,5h4.82V26Z"/><path class="cls-5" d="M55.34,26,62.27,5h5.56l6.94,21H70.4L69,21.72H60.94L59.58,26Zm6.81-8H67.8L65,9.32Z"/><path class="cls-5" d="M92.5,19.9a5.86,5.86,0,0,1-2.07,4.83q-2.06,1.68-6.09,1.68a11.56,11.56,0,0,1-4.83-.92,7.48,7.48,0,0,1-3.34-3L79.45,20a7.77,7.77,0,0,0,1.38,1.54,4.89,4.89,0,0,0,1.54.8,6.79,6.79,0,0,0,2.06.29,5.2,5.2,0,0,0,2.72-.6,2,2,0,0,0,1-1.82A1.91,1.91,0,0,0,87.78,19a2.69,2.69,0,0,0-1-.81,14.75,14.75,0,0,0-2.36-.78c-1.09-.29-2.12-.58-3.08-.88a9.63,9.63,0,0,1-2.5-1.16,5.23,5.23,0,0,1-1.65-1.79,5.38,5.38,0,0,1-.61-2.71,5.72,5.72,0,0,1,2-4.65,8.8,8.8,0,0,1,5.77-1.67C88,4.59,90.53,5.83,92,8.31l-3.25,2.54A5.38,5.38,0,0,0,86.84,9a5.29,5.29,0,0,0-2.56-.58,4.75,4.75,0,0,0-2.41.54,1.81,1.81,0,0,0-.93,1.69,1.7,1.7,0,0,0,1,1.55,14,14,0,0,0,3.38,1.08c.89.23,1.77.48,2.63.75a8.51,8.51,0,0,1,2.33,1.11A5.36,5.36,0,0,1,91.88,17,6.24,6.24,0,0,1,92.5,19.9Z"/><path class="cls-5" d="M107.38,26l-5.8-8.75-1.27,1.46V26H96V5h4.27V13.2L107.17,5h5l-7.81,9L112.71,26Z"/><path class="cls-5" d="M120,23.78a2.4,2.4,0,0,1-.59,1.85,2.68,2.68,0,0,1-1.89.56,2.46,2.46,0,0,1-1.94-.62,2.77,2.77,0,0,1-.51-1.79,2.63,2.63,0,0,1,.54-1.83,2.55,2.55,0,0,1,1.91-.59,2.63,2.63,0,0,1,1.94.57A2.66,2.66,0,0,1,120,23.78Z"/><path class="cls-5" d="M133.64,26H123.53V22.69h2.92V8.31h-2.92V5h10.11V8.31h-2.9V22.69h2.9Z"/><path class="cls-5" d="M154.53,15.5q0,5.46-2.31,8.19a8.28,8.28,0,0,1-6.71,2.72q-4.65,0-6.83-2.86t-2.19-8q0-5.21,2.19-8.06t6.83-2.85q4.68,0,6.85,2.85T154.53,15.5Zm-4.4,0a10.72,10.72,0,0,0-1.06-5.43,4.59,4.59,0,0,0-7.13,0,10.73,10.73,0,0,0-1.05,5.43A10.6,10.6,0,0,0,142,20.93a4.57,4.57,0,0,0,7.11,0A10.72,10.72,0,0,0,150.13,15.5Z"/><path class="cls-6" d="M4.86,10.22H22a1.52,1.52,0,0,1,1.52,1.52v9.87A1.52,1.52,0,0,1,22,23.13H5a1.52,1.52,0,0,1-1.52-1.52V11.74a1.4,1.4,0,0,1,1.37-1.52M.46,7.48h26a.4.4,0,0,1,.45.46V25.25a.65.65,0,0,1-.61.61H.61A.65.65,0,0,1,0,25.25V7.94A.41.41,0,0,1,.46,7.48Z"/><path class="cls-7" d="M21.72,21.91,19.44,18a1.15,1.15,0,0,0-1.82,0l-2.28,3.95ZM18.53,13.1a1.37,1.37,0,1,1-1.37,1.37A1.36,1.36,0,0,1,18.53,13.1ZM5.32,21.91l3.49-6.07a1.86,1.86,0,0,1,2.88,0l3.65,6.07Z"/><path class="cls-8" d="M3.34,4.45h26a.4.4,0,0,1,.46.45V22.21a.66.66,0,0,1-.61.61H27.49V7.33A.4.4,0,0,0,27,6.88H2.73v-2c.16-.15.31-.45.61-.45"/></svg>